<svg width="187" height="269" viewBox="0 0 187 269" fill="none" xmlns="http://www.w3.org/2000/svg">
<rect x="-4.68604" y="166.178" width="12.7651" height="12.7651" transform="rotate(-90 -4.68604 166.178)" fill="white"/>
<rect x="-4.68604" y="140.648" width="12.7651" height="12.7651" transform="rotate(-90 -4.68604 140.648)" fill="white"/>
<rect x="-4.68604" y="115.118" width="12.7651" height="12.7651" transform="rotate(-90 -4.68604 115.118)" fill="white"/>
<rect x="8.07727" y="153.412" width="12.7651" height="12.7651" transform="rotate(-90 8.07727 153.412)" fill="white"/>
<rect x="20.8439" y="268.299" width="12.7651" height="12.7651" transform="rotate(-90 20.8439 268.299)" fill="white"/>
<rect x="20.8439" y="255.534" width="12.7651" height="12.7651" transform="rotate(-90 20.8439 255.534)" fill="white"/>
<rect x="20.8439" y="242.769" width="12.7651" height="12.7651" transform="rotate(-90 20.8439 242.769)" fill="white"/>
<rect x="20.8439" y="230.004" width="12.7651" height="12.7651" transform="rotate(-90 20.8439 230.004)" fill="white"/>
<rect x="20.8439" y="217.239" width="12.7651" height="12.7651" transform="rotate(-90 20.8439 217.239)" fill="white"/>
<rect x="20.8439" y="191.708" width="12.7651" height="12.7651" transform="rotate(-90 20.8439 191.708)" fill="white"/>
<rect x="20.8439" y="178.942" width="12.7651" height="12.7651" transform="rotate(-90 20.8439 178.942)" fill="white"/>
<rect x="20.8439" y="166.178" width="12.7651" height="12.7651" transform="rotate(-90 20.8439 166.178)" fill="white"/>
<rect x="20.8439" y="127.882" width="12.7651" height="12.7651" transform="rotate(-90 20.8439 127.882)" fill="white"/>
<rect x="20.8439" y="102.354" width="12.7651" height="12.7651" transform="rotate(-90 20.8439 102.354)" fill="white"/>
<rect x="20.8439" y="76.8213" width="12.7651" height="12.7651" transform="rotate(-90 20.8439 76.8213)" fill="white"/>
<rect x="20.8439" y="51.2914" width="12.7651" height="12.7651" transform="rotate(-90 20.8439 51.2914)" fill="white"/>
<rect x="20.8439" y="25.7614" width="12.7651" height="12.7651" transform="rotate(-90 20.8439 25.7614)" fill="white"/>
<rect x="33.6078" y="255.534" width="12.7651" height="12.7651" transform="rotate(-90 33.6078 255.534)" fill="white"/>
<rect x="33.6078" y="153.412" width="12.7651" height="12.7651" transform="rotate(-90 33.6078 153.412)" fill="white"/>
<rect x="33.61" y="127.882" width="12.7651" height="12.7651" transform="rotate(-90 33.61 127.882)" fill="white"/>
<rect x="33.61" y="115.118" width="12.7651" height="12.7651" transform="rotate(-90 33.61 115.118)" fill="white"/>
<rect x="33.6078" y="102.354" width="12.7651" height="12.7651" transform="rotate(-90 33.6078 102.354)" fill="white"/>
<rect x="33.6078" y="89.588" width="12.7651" height="12.7651" transform="rotate(-90 33.6078 89.588)" fill="white"/>
<rect x="33.6078" y="51.2914" width="12.7651" height="12.7651" transform="rotate(-90 33.6078 51.2914)" fill="white"/>
<rect x="33.6078" y="38.5269" width="12.7651" height="12.7651" transform="rotate(-90 33.6078 38.5269)" fill="white"/>
<rect x="33.6078" y="12.9969" width="12.7651" height="12.7651" transform="rotate(-90 33.6078 12.9969)" fill="white"/>
<rect x="46.3744" y="242.769" width="12.7651" height="12.7651" transform="rotate(-90 46.3744 242.769)" fill="white"/>
<rect x="46.3744" y="230.004" width="12.7651" height="12.7651" transform="rotate(-90 46.3744 230.004)" fill="white"/>
<rect x="46.3744" y="204.473" width="12.7651" height="12.7651" transform="rotate(-90 46.3744 204.473)" fill="white"/>
<rect x="46.3744" y="191.708" width="12.7651" height="12.7651" transform="rotate(-90 46.3744 191.708)" fill="white"/>
<rect x="46.3744" y="178.942" width="12.7651" height="12.7651" transform="rotate(-90 46.3744 178.942)" fill="white"/>
<rect x="46.3744" y="166.178" width="12.7651" height="12.7651" transform="rotate(-90 46.3744 166.178)" fill="white"/>
<rect x="46.3744" y="115.118" width="12.7651" height="12.7651" transform="rotate(-90 46.3744 115.118)" fill="white"/>
<rect x="46.3744" y="89.588" width="12.7651" height="12.7651" transform="rotate(-90 46.3744 89.588)" fill="white"/>
<rect x="46.3744" y="76.8213" width="12.7651" height="12.7651" transform="rotate(-90 46.3744 76.8213)" fill="white"/>
<rect x="46.3744" y="38.5269" width="12.7651" height="12.7651" transform="rotate(-90 46.3744 38.5269)" fill="white"/>
<rect x="46.3744" y="25.7625" width="12.7651" height="12.7651" transform="rotate(-90 46.3744 25.7625)" fill="white"/>
<rect x="59.1394" y="268.299" width="12.7651" height="12.7651" transform="rotate(-90 59.1394 268.299)" fill="white"/>
<rect x="59.1394" y="217.239" width="12.7651" height="12.7651" transform="rotate(-90 59.1394 217.239)" fill="white"/>
<rect x="59.1394" y="166.178" width="12.7651" height="12.7651" transform="rotate(-90 59.1394 166.178)" fill="white"/>
<rect x="59.1378" y="140.648" width="12.7651" height="12.7651" transform="rotate(-90 59.1378 140.648)" fill="white"/>
<rect x="59.1394" y="127.882" width="12.7651" height="12.7651" transform="rotate(-90 59.1394 127.882)" fill="white"/>
<rect x="59.1394" y="115.118" width="12.7651" height="12.7651" transform="rotate(-90 59.1394 115.118)" fill="white"/>
<rect x="59.1394" y="102.354" width="12.7651" height="12.7651" transform="rotate(-90 59.1394 102.354)" fill="white"/>
<rect x="59.1394" y="89.588" width="12.7651" height="12.7651" transform="rotate(-90 59.1394 89.588)" fill="white"/>
<rect x="59.1394" y="51.2914" width="12.7651" height="12.7651" transform="rotate(-90 59.1394 51.2914)" fill="white"/>
<rect x="59.1394" y="38.5269" width="12.7651" height="12.7651" transform="rotate(-90 59.1394 38.5269)" fill="white"/>
<rect x="59.1394" y="25.7625" width="12.7651" height="12.7651" transform="rotate(-90 59.1394 25.7625)" fill="white"/>
<rect x="59.1378" y="12.9969" width="12.7651" height="12.7651" transform="rotate(-90 59.1378 12.9969)" fill="white"/>
<rect x="71.9038" y="268.299" width="12.7651" height="12.7651" transform="rotate(-90 71.9038 268.299)" fill="white"/>
<rect x="71.9038" y="255.534" width="12.7651" height="12.7651" transform="rotate(-90 71.9038 255.534)" fill="white"/>
<rect x="71.9038" y="242.769" width="12.7651" height="12.7651" transform="rotate(-90 71.9038 242.769)" fill="white"/>
<rect x="71.9038" y="217.239" width="12.7651" height="12.7651" transform="rotate(-90 71.9038 217.239)" fill="white"/>
<rect x="71.9038" y="191.708" width="12.7651" height="12.7651" transform="rotate(-90 71.9038 191.708)" fill="white"/>
<rect x="71.9038" y="178.943" width="12.7651" height="12.7651" transform="rotate(-90 71.9038 178.943)" fill="white"/>
<rect x="71.9038" y="153.412" width="12.7651" height="12.7651" transform="rotate(-90 71.9038 153.412)" fill="white"/>
<rect x="71.9038" y="140.648" width="12.7651" height="12.7651" transform="rotate(-90 71.9038 140.648)" fill="white"/>
<rect x="71.9038" y="115.118" width="12.7651" height="12.7651" transform="rotate(-90 71.9038 115.118)" fill="white"/>
<rect x="71.9038" y="76.8213" width="12.7651" height="12.7651" transform="rotate(-90 71.9038 76.8213)" fill="white"/>
<rect x="71.9038" y="51.2914" width="12.7651" height="12.7651" transform="rotate(-90 71.9038 51.2914)" fill="white"/>
<rect x="84.6694" y="166.178" width="12.7651" height="12.7651" transform="rotate(-90 84.6694 166.178)" fill="white"/>
<rect x="84.6694" y="140.648" width="12.7651" height="12.7651" transform="rotate(-90 84.6694 140.648)" fill="white"/>
<rect x="84.6694" y="115.118" width="12.7651" height="12.7651" transform="rotate(-90 84.6694 115.118)" fill="white"/>
<rect x="84.6694" y="76.8213" width="12.7651" height="12.7651" transform="rotate(-90 84.6694 76.8213)" fill="white"/>
<rect x="84.6694" y="38.5269" width="12.7651" height="12.7651" transform="rotate(-90 84.6694 38.5269)" fill="white"/>
<rect x="84.6694" y="25.7614" width="12.7651" height="12.7651" transform="rotate(-90 84.6694 25.7614)" fill="white"/>
<rect x="84.6694" y="12.9969" width="12.7651" height="12.7651" transform="rotate(-90 84.6694 12.9969)" fill="white"/>
<rect x="97.4332" y="166.178" width="12.7651" height="12.7651" transform="rotate(-90 97.4332 166.178)" fill="white"/>
<rect x="97.4332" y="153.412" width="12.7651" height="12.7651" transform="rotate(-90 97.4332 153.412)" fill="white"/>
<rect x="97.4332" y="140.648" width="12.7651" height="12.7651" transform="rotate(-90 97.4332 140.648)" fill="white"/>
<rect x="97.4332" y="127.882" width="12.7651" height="12.7651" transform="rotate(-90 97.4332 127.882)" fill="white"/>
<rect x="97.4332" y="102.354" width="12.7651" height="12.7651" transform="rotate(-90 97.4332 102.354)" fill="white"/>
<rect x="97.4332" y="64.0569" width="12.7651" height="12.7651" transform="rotate(-90 97.4332 64.0569)" fill="white"/>
<rect x="97.4332" y="51.2914" width="12.7651" height="12.7651" transform="rotate(-90 97.4332 51.2914)" fill="white"/>
<rect x="97.4332" y="25.7614" width="12.7651" height="12.7651" transform="rotate(-90 97.4332 25.7614)" fill="white"/>
<rect x="110.2" y="76.8213" width="12.7651" height="12.7651" transform="rotate(-90 110.2 76.8213)" fill="white"/>
<rect x="110.2" y="64.0569" width="12.7651" height="12.7651" transform="rotate(-90 110.2 64.0569)" fill="white"/>
<rect x="110.2" y="51.2914" width="12.7651" height="12.7651" transform="rotate(-90 110.2 51.2914)" fill="white"/>
<rect x="110.2" y="38.5269" width="12.7651" height="12.7651" transform="rotate(-90 110.2 38.5269)" fill="white"/>
<rect x="110.2" y="25.7614" width="12.7651" height="12.7651" transform="rotate(-90 110.2 25.7614)" fill="white"/>
<rect x="122.965" y="166.178" width="12.7651" height="12.7651" transform="rotate(-90 122.965 166.178)" fill="white"/>
<rect x="122.965" y="153.413" width="12.7651" height="12.7651" transform="rotate(-90 122.965 153.413)" fill="white"/>
<rect x="122.965" y="140.648" width="12.7651" height="12.7651" transform="rotate(-90 122.965 140.648)" fill="white"/>
<rect x="122.964" y="127.882" width="12.7651" height="12.7651" transform="rotate(-90 122.964 127.882)" fill="white"/>
<rect x="122.965" y="102.354" width="12.7651" height="12.7651" transform="rotate(-90 122.965 102.354)" fill="white"/>
<rect x="122.964" y="64.0569" width="12.7651" height="12.7651" transform="rotate(-90 122.964 64.0569)" fill="white"/>
<rect x="122.965" y="25.7614" width="12.7651" height="12.7651" transform="rotate(-90 122.965 25.7614)" fill="white"/>
<rect x="135.729" y="166.178" width="12.7651" height="12.7651" transform="rotate(-90 135.729 166.178)" fill="white"/>
<rect x="135.729" y="153.412" width="12.7651" height="12.7651" transform="rotate(-90 135.729 153.412)" fill="white"/>
<rect x="135.729" y="140.648" width="12.7651" height="12.7651" transform="rotate(-90 135.729 140.648)" fill="white"/>
<rect x="135.729" y="127.882" width="12.7651" height="12.7651" transform="rotate(-90 135.729 127.882)" fill="white"/>
<rect x="135.729" y="115.118" width="12.7651" height="12.7651" transform="rotate(-90 135.729 115.118)" fill="white"/>
<rect x="135.729" y="102.351" width="12.7651" height="12.7651" transform="rotate(-90 135.729 102.351)" fill="white"/>
<rect x="135.729" y="89.588" width="12.7651" height="12.7651" transform="rotate(-90 135.729 89.588)" fill="white"/>
<rect x="135.729" y="76.8213" width="12.7651" height="12.7651" transform="rotate(-90 135.729 76.8213)" fill="white"/>
<rect x="135.729" y="51.2914" width="12.7651" height="12.7651" transform="rotate(-90 135.729 51.2914)" fill="white"/>
<rect x="135.729" y="38.5269" width="12.7651" height="12.7651" transform="rotate(-90 135.729 38.5269)" fill="white"/>
<rect x="148.495" y="166.178" width="12.7651" height="12.7651" transform="rotate(-90 148.495 166.178)" fill="white"/>
<rect x="148.495" y="153.412" width="12.7651" height="12.7651" transform="rotate(-90 148.495 153.412)" fill="white"/>
<rect x="148.495" y="140.648" width="12.7651" height="12.7651" transform="rotate(-90 148.495 140.648)" fill="white"/>
<rect x="148.495" y="115.118" width="12.7651" height="12.7651" transform="rotate(-90 148.495 115.118)" fill="white"/>
<rect x="148.495" y="89.588" width="12.7651" height="12.7651" transform="rotate(-90 148.495 89.588)" fill="white"/>
<rect x="148.495" y="76.8213" width="12.7651" height="12.7651" transform="rotate(-90 148.495 76.8213)" fill="white"/>
<rect x="148.495" y="38.5269" width="12.7651" height="12.7651" transform="rotate(-90 148.495 38.5269)" fill="white"/>
<rect x="161.26" y="166.178" width="12.7651" height="12.7651" transform="rotate(-90 161.26 166.178)" fill="white"/>
<rect x="161.26" y="153.412" width="12.7651" height="12.7651" transform="rotate(-90 161.26 153.412)" fill="white"/>
<rect x="161.26" y="127.882" width="12.7651" height="12.7651" transform="rotate(-90 161.26 127.882)" fill="white"/>
<rect x="161.26" y="115.118" width="12.7651" height="12.7651" transform="rotate(-90 161.26 115.118)" fill="white"/>
<rect x="161.261" y="102.351" width="12.7651" height="12.7651" transform="rotate(-90 161.261 102.351)" fill="white"/>
<rect x="161.261" y="89.588" width="12.7651" height="12.7651" transform="rotate(-90 161.261 89.588)" fill="white"/>
<rect x="161.26" y="64.0569" width="12.7651" height="12.7651" transform="rotate(-90 161.26 64.0569)" fill="white"/>
<rect x="161.26" y="51.2914" width="12.7651" height="12.7651" transform="rotate(-90 161.26 51.2914)" fill="white"/>
<rect x="161.26" y="38.5269" width="12.7651" height="12.7651" transform="rotate(-90 161.26 38.5269)" fill="white"/>
<rect x="174.025" y="166.178" width="12.7651" height="12.7651" transform="rotate(-90 174.025 166.178)" fill="white"/>
<rect x="174.025" y="153.412" width="12.7651" height="12.7651" transform="rotate(-90 174.025 153.412)" fill="white"/>
<rect x="174.025" y="140.648" width="12.7651" height="12.7651" transform="rotate(-90 174.025 140.648)" fill="white"/>
<rect x="174.025" y="115.118" width="12.7651" height="12.7651" transform="rotate(-90 174.025 115.118)" fill="white"/>
<rect x="174.025" y="76.8213" width="12.7651" height="12.7651" transform="rotate(-90 174.025 76.8213)" fill="white"/>
<rect x="174.025" y="51.2914" width="12.7651" height="12.7651" transform="rotate(-90 174.025 51.2914)" fill="white"/>
<rect x="174.025" y="25.7614" width="12.7651" height="12.7651" transform="rotate(-90 174.025 25.7614)" fill="white"/>
</svg>
