<svg width="107" height="22" viewBox="0 0 107 22" fill="none" xmlns="http://www.w3.org/2000/svg">
<path fill-rule="evenodd" clip-rule="evenodd" d="M10.306 21.255C15.9978 21.255 20.612 16.6408 20.612 10.949C20.612 5.25716 15.9978 0.643005 10.306 0.643005C4.61415 0.643005 0 5.25716 0 10.949C0 16.6408 4.61415 21.255 10.306 21.255ZM10.3059 8.74957L6.4889 7.13297L4.53915 12.4019C3.81695 14.3535 6.09443 16.0366 7.7481 14.7733L9.97045 13.0757L14.123 14.767L16.1491 8.70653C16.8265 6.68006 14.371 5.07421 12.7861 6.5072L10.3059 8.74957Z" fill="#F0FDF4"/>
<path d="M25.6837 6.90097H27.9898L28.505 9.77138L27.8671 9.13351C28.2597 8.52835 28.7912 7.98044 29.4618 7.48977C30.1487 6.99911 31.0974 6.75377 32.3077 6.75377C33.2399 6.75377 34.0823 6.94186 34.8346 7.31804C35.6033 7.67786 36.2167 8.27484 36.6746 9.10898C37.1326 9.94311 37.3615 11.0635 37.3615 12.4701V19.4621H34.6874V12.6909C34.6874 11.4969 34.4339 10.5892 33.9269 9.96765C33.4362 9.34613 32.692 9.03538 31.6943 9.03538C30.991 9.03538 30.3859 9.19893 29.8789 9.52604C29.3882 9.85316 29.0038 10.3275 28.7258 10.949C28.4641 11.5541 28.3333 12.282 28.3333 13.1325V19.4621H25.6837V6.90097Z" fill="#F0FDF4"/>
<path d="M45.9593 17.3522C46.7117 17.3522 47.3577 17.1723 47.8975 16.8125C48.4536 16.4526 48.887 15.962 49.1978 15.3405C49.5085 14.7026 49.6639 13.9829 49.6639 13.1815C49.6639 12.3637 49.5085 11.6441 49.1978 11.0226C48.887 10.4011 48.4536 9.9104 47.8975 9.55058C47.3577 9.19076 46.7117 9.01084 45.9593 9.01084C45.207 9.01084 44.5528 9.19076 43.9967 9.55058C43.4569 9.9104 43.0317 10.4011 42.7209 11.0226C42.4265 11.6441 42.2793 12.3637 42.2793 13.1815C42.2793 13.9829 42.4265 14.7026 42.7209 15.3405C43.0317 15.962 43.4569 16.4526 43.9967 16.8125C44.5528 17.1723 45.207 17.3522 45.9593 17.3522ZM45.9593 19.6093C44.7 19.6093 43.5796 19.3394 42.5983 18.7997C41.6333 18.2599 40.8809 17.5076 40.3412 16.5426C39.8178 15.5776 39.5561 14.4573 39.5561 13.1815C39.5561 11.9058 39.8178 10.7854 40.3412 9.82045C40.8809 8.85547 41.6333 8.10311 42.5983 7.56337C43.5796 7.02364 44.7 6.75377 45.9593 6.75377C47.2351 6.75377 48.3554 7.02364 49.3204 7.56337C50.2854 8.10311 51.0296 8.85547 51.553 9.82045C52.0927 10.7854 52.3626 11.9058 52.3626 13.1815C52.3626 14.4573 52.0927 15.5776 51.553 16.5426C51.0296 17.5076 50.2854 18.2599 49.3204 18.7997C48.3554 19.3394 47.2351 19.6093 45.9593 19.6093Z" fill="#F0FDF4"/>
<path d="M54.6333 6.49442H57.2829L57.6334 12.9853L63.3251 6.90097H66.4409L61.7059 11.9794L66.7353 19.4621H63.595L59.8905 13.9175L57.6334 16.2727V19.4621H54.9838L54.6333 6.49442Z" fill="#F0FDF4"/>
<path d="M68.1456 10.7282C68.2274 9.9104 68.5054 9.20711 68.9797 8.61831C69.4704 8.02951 70.1082 7.57155 70.8933 7.24444C71.6947 6.91733 72.627 6.75377 73.6901 6.75377C75.3584 6.75377 76.6505 7.14631 77.5664 7.93138C78.4823 8.70009 78.9403 9.82862 78.9403 11.317V16.3463C78.9403 16.6571 79.0057 16.8697 79.1365 16.9842C79.2674 17.0987 79.4718 17.1559 79.7499 17.1559H80.2896V19.4621H78.8912C77.9916 19.4621 77.3783 19.2658 77.0512 18.8733C76.7241 18.4807 76.5687 17.9492 76.5851 17.2786L76.6096 16.3709L76.9776 16.7634C76.5851 17.5812 76.029 18.2599 75.3093 18.7997C74.5897 19.3394 73.6329 19.6093 72.4389 19.6093C71.523 19.6093 70.7134 19.4702 70.0101 19.1922C69.3068 18.8978 68.7589 18.4726 68.3664 17.9165C67.9738 17.3604 67.7776 16.698 67.7776 15.9293C67.7776 14.6372 68.2355 13.6477 69.1514 12.9607C70.0674 12.2574 71.4003 11.9058 73.1504 11.9058H76.3152V11.1452C76.3152 10.442 76.0699 9.89405 75.5792 9.50151C75.1049 9.09262 74.4343 8.88818 73.5674 8.88818C72.7824 8.88818 72.1363 9.05991 71.6293 9.40338C71.1386 9.73049 70.8442 10.1721 70.7461 10.7282H68.1456ZM76.3152 13.8685H73.0277C72.2099 13.8685 71.5802 14.0238 71.1386 14.3346C70.697 14.6453 70.4762 15.1197 70.4762 15.7575C70.4762 16.2809 70.6807 16.7143 71.0896 17.0578C71.5148 17.3849 72.0873 17.5485 72.8069 17.5485C73.5429 17.5485 74.1644 17.4094 74.6715 17.1314C75.1948 16.8533 75.5955 16.4772 75.8736 16.0029C76.168 15.5122 76.3152 14.9479 76.3152 14.3101V13.8685Z" fill="#F0FDF4"/>
<path d="M87.4246 19.6093C85.74 19.6093 84.3743 19.2331 83.3275 18.4807C82.2808 17.7284 81.7329 16.6734 81.6838 15.3159H84.2843C84.3334 15.9701 84.6278 16.5099 85.1675 16.9351C85.7236 17.344 86.476 17.5485 87.4246 17.5485C87.9807 17.5485 88.455 17.483 88.8475 17.3522C89.2564 17.2213 89.5754 17.0333 89.8043 16.7879C90.0333 16.5262 90.1478 16.2318 90.1478 15.9047C90.1478 15.4468 90.0251 15.1197 89.7798 14.9234C89.5345 14.7108 89.1828 14.5636 88.7249 14.4818C88.2669 14.3837 87.7108 14.2937 87.0566 14.2119C86.3369 14.1301 85.6664 14.0238 85.0449 13.893C84.4397 13.7458 83.9 13.5495 83.4257 13.3042C82.9677 13.0425 82.5997 12.699 82.3217 12.2738C82.06 11.8485 81.9291 11.3088 81.9291 10.6546C81.9291 9.85316 82.1499 9.15804 82.5915 8.56924C83.0331 7.98044 83.6383 7.53066 84.407 7.21991C85.1921 6.89279 86.0834 6.73742 87.0811 6.75377C88.6186 6.75377 89.8861 7.09724 90.8838 7.78417C91.8979 8.47111 92.4458 9.46062 92.5275 10.7527H89.927C89.8616 10.1803 89.5754 9.71413 89.0683 9.35431C88.5777 8.97813 87.9316 8.79004 87.1302 8.79004C86.3451 8.79004 85.7154 8.93724 85.2411 9.23164C84.7668 9.52604 84.5297 9.92676 84.5297 10.4338C84.5297 10.8263 84.6523 11.1207 84.8977 11.317C85.143 11.5132 85.4946 11.6523 85.9526 11.734C86.4105 11.8158 86.9421 11.8894 87.5473 11.9548C88.5122 12.0693 89.3873 12.2411 90.1723 12.4701C90.9574 12.6827 91.5789 13.0425 92.0369 13.5495C92.5112 14.0402 92.7483 14.7517 92.7483 15.6839C92.7483 16.4853 92.5112 17.1805 92.0369 17.7693C91.5789 18.3581 90.9492 18.816 90.1478 19.1431C89.3464 19.4539 88.4386 19.6093 87.4246 19.6093Z" fill="#F0FDF4"/>
<path d="M95.2923 2.2887H97.9419V9.99218L97.5494 9.35431C97.7947 8.89635 98.1055 8.47111 98.4817 8.07858C98.8579 7.68604 99.324 7.36711 99.8801 7.12177C100.453 6.87644 101.123 6.75377 101.892 6.75377C102.824 6.75377 103.675 6.94186 104.443 7.31804C105.212 7.69422 105.825 8.29938 106.283 9.13351C106.741 9.95129 106.97 11.0635 106.97 12.4701V19.4621H104.321V12.6909C104.321 11.4969 104.059 10.5892 103.536 9.96765C103.029 9.34613 102.284 9.03538 101.303 9.03538C100.6 9.03538 99.9946 9.19893 99.4875 9.52604C98.9969 9.85316 98.6125 10.3275 98.3345 10.949C98.0728 11.5541 97.9419 12.2738 97.9419 13.1079V19.4621H95.2923V2.2887Z" fill="#F0FDF4"/>
</svg>
